<svg width="25" height="32" viewBox="0 0 25 32" fill="none" xmlns="http://www.w3.org/2000/svg">
<g clip-path="url(#clip0_6_417)">
<path fill-rule="evenodd" clip-rule="evenodd" d="M22.0487 23.875C20.6209 21.4066 18.4206 19.6366 15.8528 18.7975C18.4635 17.2433 19.7141 14.1364 18.9082 11.2069C18.1022 8.27741 15.4383 6.24745 12.4 6.24745C9.36166 6.24745 6.69778 8.27741 5.89181 11.2069C5.08584 14.1364 6.33644 17.2433 8.94718 18.7975C6.37937 19.6356 4.17906 21.4056 2.75124 23.875C2.6087 24.1074 2.60352 24.3989 2.73773 24.6363C2.87193 24.8736 3.12437 25.0194 3.39702 25.0171C3.66967 25.0147 3.91957 24.8646 4.04968 24.625C5.81593 21.5725 8.93781 19.75 12.4 19.75C15.8622 19.75 18.9841 21.5725 20.7503 24.625C20.8804 24.8646 21.1303 25.0147 21.403 25.0171C21.6756 25.0194 21.9281 24.8736 22.0623 24.6363C22.1965 24.3989 22.1913 24.1074 22.0487 23.875ZM7.14999 13C7.14999 10.1005 9.5005 7.75 12.4 7.75C15.2995 7.75 17.65 10.1005 17.65 13C17.65 15.8995 15.2995 18.25 12.4 18.25C9.50178 18.2469 7.15309 15.8982 7.14999 13Z" fill="#616E8A"/>
</g>
<defs>
<clipPath id="clip0_6_417">
<rect width="24" height="24" fill="white" transform="translate(0.399994 4)"/>
</clipPath>
</defs>
</svg>
